<svg viewBox="0 0 64 64" fill="none" xmlns="http://www.w3.org/2000/svg">
<path fill-rule="evenodd" clip-rule="evenodd" d="M42.1358 33.2316L38.5171 35.3703L35.076 31.7931L38.1534 28.4058L42.1358 30.7594C42.704 31.0927 42.9919 31.5322 42.9997 31.9741C42.9999 31.9829 43 31.9917 43 32.0005L42.9998 31.9989C42.997 32.4447 42.709 32.8911 42.1358 33.2316ZM37.269 27.8921L26.09 21.2899C25.5865 20.9917 25.1246 20.9316 24.7637 21.0727L34.3812 31.0708L37.269 27.8921ZM33.7072 31.8126L24.1054 21.8308C24.037 22.0359 24 22.2761 24 22.548V22.6763C24 22.5882 24.0039 22.5035 24.0114 22.4221C24.0098 22.4603 24.009 22.4992 24.009 22.5387V41.4609C24.009 41.7961 24.0649 42.0836 24.1664 42.3145L33.7072 31.8126ZM24.9197 42.9724C25.2553 43.0485 25.6612 42.9691 26.0984 42.7101L37.6327 35.8935L34.4021 32.5349L24.9197 42.9724Z" fill="white"/>
<rect x="1" y="1" width="62" height="62" rx="31" stroke="white" stroke-width="2"/>
</svg>
