<svg width="1440" height="901" viewBox="0 0 1440 901" fill="none" xmlns="http://www.w3.org/2000/svg">
<g opacity="0.5">
<path d="M719.997 521.351V899.979" stroke="#3AA76D" stroke-width="0.25" stroke-linecap="round" stroke-linejoin="round"/>
<path d="M662.639 521.351L359.567 899.979" stroke="#3AA76D" stroke-width="0.25" stroke-linecap="round" stroke-linejoin="round"/>
<path d="M776.545 521.351L1078.58 899.979" stroke="#3AA76D" stroke-width="0.25" stroke-linecap="round" stroke-linejoin="round"/>
<path d="M491.613 521.351L0.000976562 674.952" stroke="#3AA76D" stroke-width="0.25" stroke-linecap="round" stroke-linejoin="round"/>
<path d="M548.722 521.351L0 750.123" stroke="#3AA76D" stroke-width="0.25" stroke-linecap="round" stroke-linejoin="round"/>
<path d="M605.676 521.351L0.0361328 900" stroke="#3AA76D" stroke-width="0.25" stroke-linecap="round" stroke-linejoin="round"/>
<path d="M0.000976562 562.793L491.613 485.824" stroke="#3AA76D" stroke-width="0.25" stroke-linecap="round" stroke-linejoin="round"/>
<path d="M948.064 521.351L1440 674.935" stroke="#3AA76D" stroke-width="0.25" stroke-linecap="round" stroke-linejoin="round"/>
<path d="M890.461 521.351L1440 750.725" stroke="#3AA76D" stroke-width="0.25" stroke-linecap="round" stroke-linejoin="round"/>
<path d="M1440 562.884L948.063 485.802" stroke="#3AA76D" stroke-width="0.25" stroke-linecap="round" stroke-linejoin="round"/>
<path d="M833.508 521.351L1438.08 899.979" stroke="#3AA76D" stroke-width="0.25" stroke-linecap="round" stroke-linejoin="round"/>
<path d="M0.000976562 450.353L491.613 450.157" stroke="#3AA76D" stroke-width="0.25" stroke-linecap="round" stroke-linejoin="round"/>
<path d="M0.000976562 337.915L491.613 414.491" stroke="#3AA76D" stroke-width="0.25" stroke-linecap="round" stroke-linejoin="round"/>
<path d="M491.613 378.632L0.000976562 225.027" stroke="#3AA76D" stroke-width="0.25" stroke-linecap="round" stroke-linejoin="round"/>
<path d="M548.212 378.632L0.000976562 150.66" stroke="#3AA76D" stroke-width="0.25" stroke-linecap="round" stroke-linejoin="round"/>
<path d="M777.125 378.632L1079.9 0" stroke="#3AA76D" stroke-width="0.25" stroke-linecap="round" stroke-linejoin="round"/>
<path d="M605.445 378.632L0.000976562 1.0874" stroke="#3AA76D" stroke-width="0.25" stroke-linecap="round" stroke-linejoin="round"/>
<path d="M662.673 378.632L358.805 0" stroke="#3AA76D" stroke-width="0.25" stroke-linecap="round" stroke-linejoin="round"/>
<path d="M719.997 0.000488281V378.632" stroke="#3AA76D" stroke-width="0.25" stroke-linecap="round" stroke-linejoin="round"/>
<path d="M891.579 378.632L1440 150.302" stroke="#3AA76D" stroke-width="0.25" stroke-linecap="round" stroke-linejoin="round"/>
<path d="M834.353 378.632L1440 0.279785" stroke="#3AA76D" stroke-width="0.25" stroke-linecap="round" stroke-linejoin="round"/>
<path d="M948.064 378.732L1440 225.026" stroke="#3AA76D" stroke-width="0.25" stroke-linecap="round" stroke-linejoin="round"/>
<path d="M1440 337.81L948.063 414.509" stroke="#3AA76D" stroke-width="0.25" stroke-linecap="round" stroke-linejoin="round"/>
<path d="M1440 450.345L948.063 450.152" stroke="#3AA76D" stroke-width="0.25" stroke-linecap="round" stroke-linejoin="round"/>
<path fill-rule="evenodd" clip-rule="evenodd" d="M74.606 651.642H1365.39V248.34H74.606V651.642Z" stroke="#3AA76D" stroke-width="0.25" stroke-linecap="round" stroke-linejoin="round"/>
<path fill-rule="evenodd" clip-rule="evenodd" d="M136.254 632.38H1303.7V267.598H136.254V632.38Z" stroke="#3AA76D" stroke-width="0.25" stroke-linecap="round" stroke-linejoin="round"/>
<path fill-rule="evenodd" clip-rule="evenodd" d="M187.992 616.215H1251.92V283.766H187.992V616.215Z" stroke="#3AA76D" stroke-width="0.25" stroke-linecap="round" stroke-linejoin="round"/>
<path fill-rule="evenodd" clip-rule="evenodd" d="M231.304 602.685H1208.57V297.3H231.304V602.685Z" stroke="#3AA76D" stroke-width="0.25" stroke-linecap="round" stroke-linejoin="round"/>
<path fill-rule="evenodd" clip-rule="evenodd" d="M268.1 591.187H1171.75V308.797H268.1V591.187Z" stroke="#3AA76D" stroke-width="0.25" stroke-linecap="round" stroke-linejoin="round"/>
<path fill-rule="evenodd" clip-rule="evenodd" d="M299.735 581.301H1140.09V318.679H299.735V581.301Z" stroke="#3AA76D" stroke-width="0.25" stroke-linecap="round" stroke-linejoin="round"/>
<path fill-rule="evenodd" clip-rule="evenodd" d="M327.234 572.709H1112.57V327.272H327.234V572.709Z" stroke="#3AA76D" stroke-width="0.25" stroke-linecap="round" stroke-linejoin="round"/>
<path fill-rule="evenodd" clip-rule="evenodd" d="M351.358 565.171H1088.43V334.808H351.358V565.171Z" stroke="#3AA76D" stroke-width="0.25" stroke-linecap="round" stroke-linejoin="round"/>
<path fill-rule="evenodd" clip-rule="evenodd" d="M372.691 558.511H1067.09V341.474H372.691V558.511Z" stroke="#3AA76D" stroke-width="0.25" stroke-linecap="round" stroke-linejoin="round"/>
<path fill-rule="evenodd" clip-rule="evenodd" d="M391.681 552.574H1048.07V347.409H391.681V552.574Z" stroke="#3AA76D" stroke-width="0.25" stroke-linecap="round" stroke-linejoin="round"/>
<path fill-rule="evenodd" clip-rule="evenodd" d="M408.712 547.253H1031.03V352.729H408.712V547.253Z" stroke="#3AA76D" stroke-width="0.25" stroke-linecap="round" stroke-linejoin="round"/>
<path fill-rule="evenodd" clip-rule="evenodd" d="M424.057 542.456H1015.67V357.522H424.057V542.456Z" stroke="#3AA76D" stroke-width="0.25" stroke-linecap="round" stroke-linejoin="round"/>
<path fill-rule="evenodd" clip-rule="evenodd" d="M437.963 538.112H1001.76V361.871H437.963V538.112Z" stroke="#3AA76D" stroke-width="0.25" stroke-linecap="round" stroke-linejoin="round"/>
<path d="M1440 12.9165H0" stroke="#3AA76D" stroke-width="0.25" stroke-linecap="round" stroke-linejoin="round"/>
<path d="M1440 95.6474H0" stroke="#3AA76D" stroke-width="0.25" stroke-linecap="round" stroke-linejoin="round"/>
<path d="M1440 152.044H0" stroke="#3AA76D" stroke-width="0.25" stroke-linecap="round" stroke-linejoin="round"/>
<path d="M1440 192.957H0" stroke="#3AA76D" stroke-width="0.25" stroke-linecap="round" stroke-linejoin="round"/>
<path d="M1440 223.988H0" stroke="#3AA76D" stroke-width="0.25" stroke-linecap="round" stroke-linejoin="round"/>
<path d="M1440 707.786H0" stroke="#3AA76D" stroke-width="0.25" stroke-linecap="round" stroke-linejoin="round"/>
<path d="M1440 748.813H0" stroke="#3AA76D" stroke-width="0.25" stroke-linecap="round" stroke-linejoin="round"/>
<path d="M1440 805.37H0" stroke="#3AA76D" stroke-width="0.25" stroke-linecap="round" stroke-linejoin="round"/>
<path d="M1440 888.336H0" stroke="#3AA76D" stroke-width="0.25" stroke-linecap="round" stroke-linejoin="round"/>
<path fill-rule="evenodd" clip-rule="evenodd" d="M491.614 521.351H948.065V378.632H491.614V521.351Z" stroke="#3AA76D" stroke-width="0.25" stroke-linecap="round" stroke-linejoin="round"/>
<path fill-rule="evenodd" clip-rule="evenodd" d="M482.583 524.171H957.104V375.812H482.583V524.171Z" stroke="#3AA76D" stroke-width="0.25" stroke-linecap="round" stroke-linejoin="round"/>
<path fill-rule="evenodd" clip-rule="evenodd" d="M472.803 527.226H966.889V372.757H472.803V527.226Z" stroke="#3AA76D" stroke-width="0.25" stroke-linecap="round" stroke-linejoin="round"/>
<path fill-rule="evenodd" clip-rule="evenodd" d="M462.189 530.543H977.514V369.438H462.189V530.543Z" stroke="#3AA76D" stroke-width="0.25" stroke-linecap="round" stroke-linejoin="round"/>
<path fill-rule="evenodd" clip-rule="evenodd" d="M450.619 534.158H989.094V365.826H450.619V534.158Z" stroke="#3AA76D" stroke-width="0.25" stroke-linecap="round" stroke-linejoin="round"/>
<path d="M1440 676.667H0" stroke="#3AA76D" stroke-width="0.25" stroke-linecap="round" stroke-linejoin="round"/>
</g>
</svg>
